<?xml version="1.0" encoding="utf-8"?>
<!-- Generator: Adobe Illustrator 28.1.0, SVG Export Plug-In . SVG Version: 6.00 Build 0)  -->
<svg version="1.0" id="katman_1" xmlns="http://www.w3.org/2000/svg" xmlns:xlink="http://www.w3.org/1999/xlink" x="0px" y="0px"
	 viewBox="0 0 841.89 595.28" style="enable-background:new 0 0 841.89 595.28;" xml:space="preserve">
<style type="text/css">
	.st0{fill:#DA102A;}
	.st1{fill:url(#SVGID_1_);}
	.st2{fill:#FED9A1;}
</style>
<path class="st0" d="M281.77,332.04c6.54-3.74,10.71-10.79,10.71-19.38c0-19.04-13.68-25.33-37.9-25.33h-42.07v64.5h20.65v-13.51
	h21.5c3.23,0,6.29-0.17,9.09-0.51c3.82,3.74,7.14,9.77,8.5,13.94h21.42C291.37,344.88,286.87,336.72,281.77,332.04z M255.59,323.46
	h-22.44v-21.25h22.44c10.88,0,17.08,1.95,17.08,10.45C272.59,321.25,266.47,323.46,255.59,323.46z"/>
<path class="st0" d="M195.85,287.34H175.2v64.5h20.65V287.34z"/>
<path class="st0" d="M362.25,287.34H341.6v64.5h20.65V287.34z"/>
<path class="st0" d="M593.67,287.34h-20.65v64.5h20.65V287.34z"/>
<path class="st0" d="M519.22,287.34h-40.79v64.5h40.79c23.97,0,41.64-10.79,41.64-32.29C560.86,298.05,543.18,287.34,519.22,287.34z
	 M516.76,336.46h-17.68v-33.74h17.68c15.38,0,23.54,5.44,23.54,16.83C540.3,330.94,532.14,336.46,516.76,336.46z"/>
<path class="st0" d="M441.97,316.75c-12.32-13.77-27.2-23.71-45.64-29.4h-17.51v64.5h19.8v-43.6c18.87,6.12,36.29,25.33,44.87,43.6
	h18.19v-64.5h-19.8v29.4H441.97z"/>
<path class="st0" d="M105.51,287.34c-13.6,15.38-32.72,41.3-32.72,64.5h20.57c0-3.48,0.43-7.05,1.27-10.54h46.83
	c0.85,3.57,1.28,7.05,1.28,10.54h20.57c0-23.2-19.12-49.12-32.72-64.5H105.51z M99.31,327.71c5.01-10.96,12.32-21.16,18.7-28.55
	c6.37,7.39,13.68,17.59,18.7,28.55H99.31z"/>
<path class="st0" d="M663.35,287.34h-25.07c-13.6,15.38-32.72,41.3-32.72,64.5h20.57c0-3.48,0.42-7.05,1.27-10.54h46.83
	c0.85,3.57,1.27,7.05,1.27,10.54h20.57C696.07,328.56,676.95,302.72,663.35,287.34z M632.08,327.71
	c5.01-10.96,12.32-21.16,18.7-28.55c6.37,7.39,13.68,17.59,18.69,28.55H632.08z"/>
<linearGradient id="SVGID_1_" gradientUnits="userSpaceOnUse" x1="828.8245" y1="149.5761" x2="659.707" y2="379.6303" gradientTransform="matrix(1 0 0 -1 -0.0151 596.7022)">
	<stop  offset="0.1805" style="stop-color:#FED9A1"/>
	<stop  offset="0.3124" style="stop-color:#ECC890"/>
	<stop  offset="0.5738" style="stop-color:#BF9A66"/>
	<stop  offset="0.7464" style="stop-color:#9E7947"/>
</linearGradient>
<path class="st1" d="M768.48,328.13c1.7-12.58-1.36-23.46-3.91-30.6c-1.78-5.01-3.23-9.01-4.5-12.58
	c-5.78-16.23-6.88-19.21-10.88-35.44l-1.36-5.35l-5.27-1.7c-15.98-5.18-18.78-6.46-34.59-13.51c-3.48-1.53-7.39-3.31-12.24-5.44
	c-5.7-2.46-14.36-5.86-24.81-6.2c-16.06-0.59-31.44,5.95-45.81,19.38l0.26-0.08c-3.66,3.23-7.39,6.97-11.22,11.3
	c0,0,0.09,0.26,0.93-0.42c5.02-4.08,21.42-19.38,66.04,0.68c21.92,9.86,43,18.61,43,18.61s6.89,21.67,14.79,44.45
	c16.06,46.15-0.6,61.19-5.1,65.78c-0.68,0.77-0.43,0.85-0.43,0.85c6.46-4.67,11.64-9.35,15.98-13.94
	C760.23,352.95,766.7,340.97,768.48,328.13z"/>
<path class="st2" d="M747.91,244l-5.27-1.7c-15.98-5.18-18.78-6.46-34.59-13.51c-3.49-1.53-7.39-3.31-12.24-5.44
	c-5.7-2.46-14.36-5.86-24.82-6.2c-16.06-0.59-31.44,5.95-45.8,19.38l0.25-0.08c-3.65,3.23-7.39,6.97-11.22,11.3
	c0,0,0.08,0.26,0.93-0.42c5.01-4.08,21.42-19.38,66.03,0.68c21.93,9.86,43,18.61,43,18.61L747.91,244z"/>
</svg>
